# MagicaVoxel @ Ephtracy

# group
o 

# material
mtllib Switch.mtl
usemtl palette

# normals
vn -1 0 0
vn 1 0 0
vn 0 0 1
vn 0 0 -1
vn 0 -1 0
vn 0 1 0

# texcoords
vt 0.970703 0.5
vt 0.974609 0.5
vt 0.978516 0.5

# verts
v -0.7 0.1 0.7
v -0.7 0.1 -0.7
v -0.7 0.2 0.7
v -0.7 0.2 -0.7
v -0.6 0 0.6
v -0.6 0 -0.6
v -0.6 0.1 0.6
v -0.6 0.1 -0.6
v -0.6 0.2 0.6
v -0.6 0.2 -0.6
v -0.6 0.3 0.6
v -0.6 0.3 -0.6
v 0.6 0 0.6
v 0.6 0 -0.6
v 0.6 0.1 0.6
v 0.6 0.1 -0.6
v 0.6 0.2 0.6
v 0.6 0.2 -0.6
v 0.6 0.3 0.6
v 0.6 0.3 -0.6
v 0.7 0.1 0.7
v 0.7 0.1 -0.7
v 0.7 0.2 0.7
v 0.7 0.2 -0.7
v -0.7 0.1 0.7
v -0.7 0.2 0.7
v 0.7 0.1 0.7
v 0.7 0.2 0.7
v -0.6 0 0.6
v -0.6 0.1 0.6
v -0.6 0.2 0.6
v -0.6 0.3 0.6
v 0.6 0 0.6
v 0.6 0.1 0.6
v 0.6 0.2 0.6
v 0.6 0.3 0.6
v -0.6 0 -0.6
v -0.6 0.1 -0.6
v -0.6 0.2 -0.6
v -0.6 0.3 -0.6
v 0.6 0 -0.6
v 0.6 0.1 -0.6
v 0.6 0.2 -0.6
v 0.6 0.3 -0.6
v -0.7 0.1 -0.7
v -0.7 0.2 -0.7
v 0.7 0.1 -0.7
v 0.7 0.2 -0.7
v -0.6 0 0.6
v 0.6 0 0.6
v -0.6 0 -0.6
v 0.6 0 -0.6
v -0.7 0.1 0.7
v 0.7 0.1 0.7
v -0.6 0.1 0.6
v 0.6 0.1 0.6
v -0.6 0.1 -0.6
v 0.6 0.1 -0.6
v -0.7 0.1 -0.7
v 0.7 0.1 -0.7
v -0.7 0.2 0.7
v 0.7 0.2 0.7
v -0.6 0.2 0.6
v 0.6 0.2 0.6
v -0.6 0.2 -0.6
v 0.6 0.2 -0.6
v -0.7 0.2 -0.7
v 0.7 0.2 -0.7
v -0.6 0.3 0.6
v 0.6 0.3 0.6
v -0.6 0.3 -0.6
v 0.6 0.3 -0.6

# faces
f 3/2/1 2/2/1 1/2/1
f 4/2/1 2/2/1 3/2/1
f 7/3/1 6/3/1 5/3/1
f 8/3/1 6/3/1 7/3/1
f 11/1/1 10/1/1 9/1/1
f 12/1/1 10/1/1 11/1/1
f 13/3/2 14/3/2 15/3/2
f 15/3/2 14/3/2 16/3/2
f 17/1/2 18/1/2 19/1/2
f 19/1/2 18/1/2 20/1/2
f 21/2/2 22/2/2 23/2/2
f 23/2/2 22/2/2 24/2/2
f 27/2/3 26/2/3 25/2/3
f 28/2/3 26/2/3 27/2/3
f 33/3/3 30/3/3 29/3/3
f 34/3/3 30/3/3 33/3/3
f 35/1/3 32/1/3 31/1/3
f 36/1/3 32/1/3 35/1/3
f 37/3/4 38/3/4 41/3/4
f 41/3/4 38/3/4 42/3/4
f 39/1/4 40/1/4 43/1/4
f 43/1/4 40/1/4 44/1/4
f 45/2/4 46/2/4 47/2/4
f 47/2/4 46/2/4 48/2/4
f 51/3/5 50/3/5 49/3/5
f 52/3/5 50/3/5 51/3/5
f 55/2/5 54/2/5 53/2/5
f 56/2/5 54/2/5 55/2/5
f 57/2/5 55/2/5 53/2/5
f 58/2/5 54/2/5 56/2/5
f 59/2/5 57/2/5 53/2/5
f 59/2/5 58/2/5 57/2/5
f 60/2/5 54/2/5 58/2/5
f 60/2/5 58/2/5 59/2/5
f 61/2/6 62/2/6 63/2/6
f 63/2/6 62/2/6 64/2/6
f 61/2/6 63/2/6 65/2/6
f 64/2/6 62/2/6 66/2/6
f 61/2/6 65/2/6 67/2/6
f 65/2/6 66/2/6 67/2/6
f 66/2/6 62/2/6 68/2/6
f 67/2/6 66/2/6 68/2/6
f 69/1/6 70/1/6 71/1/6
f 71/1/6 70/1/6 72/1/6
